<svg xmlns="http://www.w3.org/2000/svg" viewBox="0 0 1000 1000" height="1000" width="1000" xml:space="preserve">
    <defs>
        <clipPath id="a" clipPathUnits="userSpaceOnUse">
            <path d="M0 0h1v1H0Z"/>
        </clipPath>
        <clipPath id="b" clipPathUnits="userSpaceOnUse">
            <path d="M0 1000h1000.027V-.027H0Z"/>
        </clipPath>
        <clipPath id="c" clipPathUnits="userSpaceOnUse">
            <path d="M0 1000h1000.027V-.027H0Z"/>
        </clipPath>
    </defs>
    <g clip-path="url(#a)" transform="matrix(1000 0 0 -1000 0 1000)">
        <path style="fill:none;fill-opacity:1;fill-rule:evenodd;stroke:none" d="M0 1000V-.027h1000.027V1000Z" transform="scale(.001)"/>
        <path style="fill:none;stroke:red;stroke-width:14.96329975;stroke-linecap:round;stroke-linejoin:round;stroke-miterlimit:10;stroke-dasharray:none;stroke-opacity:1" d="m692.948 352.207 82.232 56.808m-87.662-234.116 32.575 38.004m-32.575-38.004.53 50.054m87.132 184.062-87.662-234.116m58 317.805-52.57-140.497" transform="scale(.001)"/>
        <g clip-path="url(#b)" transform="scale(.001)">
            <path style="fill:none;stroke:#000;stroke-width:14.96329975;stroke-linecap:round;stroke-linejoin:round;stroke-miterlimit:10;stroke-dasharray:none;stroke-opacity:1" d="M500.013 174.899V-.027"/>
        </g>
        <path style="fill:none;stroke:#000;stroke-width:14.96329975;stroke-linecap:round;stroke-linejoin:round;stroke-miterlimit:10;stroke-dasharray:none;stroke-opacity:1" d="M375.01 174.899h500.013m-362.43 0c0-6.886-5.561-12.448-12.58-12.448a12.433 12.433 0 0 0-12.447 12.448c0 6.885 5.562 12.58 12.447 12.58 7.019 0 12.58-5.695 12.58-12.58" transform="scale(.001)"/>
        <g clip-path="url(#c)" transform="scale(.001)">
            <path style="fill:none;stroke:#000;stroke-width:14.96329975;stroke-linecap:round;stroke-linejoin:round;stroke-miterlimit:10;stroke-dasharray:none;stroke-opacity:1" d="M500.013 864.933V1000"/>
        </g>
        <path style="fill:none;stroke:#000;stroke-width:14.96329975;stroke-linecap:round;stroke-linejoin:round;stroke-miterlimit:10;stroke-dasharray:none;stroke-opacity:1" d="M500.013 174.899v287.48m0 .001c-111.099 76.008-139.569 227.76-63.56 338.86 75.875 111.099 227.627 139.569 338.727 63.693q0 0 0 0m0 0-74.95 3.046m74.95-3.046-34.694 66.474" transform="scale(.001)"/>
        <path style="fill:none;stroke:#000;stroke-width:14.96329975;stroke-linecap:round;stroke-linejoin:round;stroke-miterlimit:10;stroke-dasharray:none;stroke-opacity:1" d="m464.658 623.136 5.561 20.79h100.506l33.502 125.003h-40.255l-62.502-83.291-11.123-41.712h100.506l-5.562-20.79m51.379 41.58 14.433-20.79h40.255l25.69 20.79 16.685 62.501-11.124-41.58h-40.255l-29 41.58m98.256-83.291 22.378 83.291h60.383m23.438-62.501 11.123 41.711 25.69 20.79h40.255l14.433-20.79 5.694 20.79-22.378-83.291 5.561 20.79-25.69-20.79h-40.254z" transform="scale(.001)"/>
        <path style="fill:none;stroke:#ff0;stroke-width:14.96329975;stroke-linecap:round;stroke-linejoin:round;stroke-miterlimit:10;stroke-dasharray:none;stroke-opacity:1" d="m445.987 287.455 108.186 62.501" transform="scale(.001)"/>
    </g>
</svg>
