<svg xmlns="http://www.w3.org/2000/svg" width="1000" height="1000" viewBox="0 0 1000 1000">
    <defs>
        <clipPath id="a">
            <path d="M485.523 635.593h26.483v364.416h-26.483Zm0 0"/>
        </clipPath>
    </defs>
    <path fill-rule="evenodd" fill="none" d="M0 0v1000.009h1000.009V0Zm0 0"/>
    <path fill="none" stroke-width="14.963" stroke-linecap="round" stroke-linejoin="round" stroke="red" stroke-miterlimit="10" d="m692.938 647.802 82.248-56.833m-87.66 234.146 32.548-38.003m-32.548 38.003.512-50.071m87.147-184.075-87.659 234.145m57.998-317.831-52.587 140.519"/>
    <g clip-path="url(#a)">
        <path fill="none" stroke-width="14.963" stroke-linecap="round" stroke-linejoin="round" stroke="#000" stroke-miterlimit="10" d="M500 650.044v349.965"/>
    </g>
    <path fill="none" stroke-width="14.963" stroke-linecap="round" stroke-linejoin="round" stroke="#000" stroke-miterlimit="10" d="M375 825.115h500.009m-362.421 0c0 6.859-5.544 12.447-12.579 12.447-6.868 0-12.447-5.588-12.447-12.447 0-6.903 5.579-12.588 12.447-12.588 7.036 0 12.579 5.685 12.579 12.588M500 425.071l-129.882-225M500 650.044V425.071m0-225V0m-26.483 226.554 53.107-52.966m0 52.966-53.099-52.966m-19.588 171.486-32.592 18.688m0 0-37.482-64.901m0 0 32.451-18.785m-269.068 53.346 14.583 20.789L136.14 375h-20.144l-14.557-20.789 22.343-83.28 25.689-20.922h40.139l14.557 20.922-16.658 62.491-25.689 20.789L176.236 375m40.281 0L250 250h80.385m-97.211 62.518h40.281"/>
    <path fill="none" stroke-width="14.963" stroke-linecap="round" stroke-linejoin="round" stroke="red" stroke-miterlimit="10" d="m445.975 731.356 108.201-62.518"/>
    <path fill="none" stroke-width="14.963" stroke-linecap="round" stroke-linejoin="round" stroke="#FF0" stroke-miterlimit="10" d="m445.975 631.382 108.201-62.518"/>
    <path fill="none" stroke-width="14.963" stroke-linecap="round" stroke-linejoin="round" stroke="#0F0" stroke-miterlimit="10" d="m445.975 681.285 108.201-62.482"/>
</svg>
