<svg xmlns="http://www.w3.org/2000/svg" viewBox="0 0 1000 1000" height="1000" width="1000" xml:space="preserve">
    <defs>
        <clipPath id="a" clipPathUnits="userSpaceOnUse">
            <path d="M0 0h1v1H0Z"/>
        </clipPath>
        <clipPath id="b" clipPathUnits="userSpaceOnUse">
            <path d="M0 1000h1000.027V-.027H0Z"/>
        </clipPath>
        <clipPath id="c" clipPathUnits="userSpaceOnUse">
            <path d="M0 1000h1000.027V-.027H0Z"/>
        </clipPath>
    </defs>
    <g clip-path="url(#a)" transform="matrix(1000 0 0 -1000 0 1000)">
        <path style="fill:none;fill-opacity:1;fill-rule:evenodd;stroke:none" d="M0 1000V-.027h1000.027V1000Z" transform="scale(.001)"/>
        <path style="fill:none;stroke:red;stroke-width:14.96329975;stroke-linecap:round;stroke-linejoin:round;stroke-miterlimit:10;stroke-dasharray:none;stroke-opacity:1" d="m745.518 492.704-52.57-140.497m82.232 56.808-87.662-234.116m0 0 .53 50.054m-.53-50.054 32.575 38.004m-27.145 139.304 82.232 56.808" transform="scale(.001)"/>
        <g clip-path="url(#b)" transform="scale(.001)">
            <path style="fill:none;stroke:#000;stroke-width:14.96329975;stroke-linecap:round;stroke-linejoin:round;stroke-miterlimit:10;stroke-dasharray:none;stroke-opacity:1" d="M500.013 349.956V-.027"/>
        </g>
        <path style="fill:none;stroke:#000;stroke-width:14.96329975;stroke-linecap:round;stroke-linejoin:round;stroke-miterlimit:10;stroke-dasharray:none;stroke-opacity:1" d="M375.01 174.899h500.013m-362.43 0c0-6.886-5.561-12.448-12.58-12.448a12.433 12.433 0 0 0-12.447 12.448c0 6.885 5.562 12.58 12.447 12.58 7.019 0 12.58-5.695 12.58-12.58m-12.58 400.037-129.902 224.98m129.902-449.96v224.98" transform="scale(.001)"/>
        <g clip-path="url(#c)" transform="scale(.001)">
            <path style="fill:none;stroke:#000;stroke-width:14.96329975;stroke-linecap:round;stroke-linejoin:round;stroke-miterlimit:10;stroke-dasharray:none;stroke-opacity:1" d="M500.013 799.915V1000"/>
        </g>
        <path style="fill:none;stroke:#000;stroke-width:14.96329975;stroke-linecap:round;stroke-linejoin:round;stroke-miterlimit:10;stroke-dasharray:none;stroke-opacity:1" d="M537.62 799.915h-75.08M147.25 666.57l14.566-20.79-25.69-20.79H116l-14.566 20.79 22.379 83.291 25.689 20.922h40.123l14.566-20.922-16.685-62.502-25.69-20.79 14.434-20.789m45.816 20.79 14.566-20.79h40.123l25.69 20.79-58 83.291 25.69 20.922h40.122l14.566-20.922" transform="scale(.001)"/>
        <path style="fill:none;stroke:red;stroke-width:14.96329975;stroke-linecap:round;stroke-linejoin:round;stroke-miterlimit:10;stroke-dasharray:none;stroke-opacity:1" d="m445.987 268.651 108.186 62.502" transform="scale(.001)"/>
        <path style="fill:none;stroke:#ff0;stroke-width:14.96329975;stroke-linecap:round;stroke-linejoin:round;stroke-miterlimit:10;stroke-dasharray:none;stroke-opacity:1" d="m445.987 368.627 108.186 62.502" transform="scale(.001)"/>
        <path style="fill:none;stroke:#0f0;stroke-width:14.96329975;stroke-linecap:round;stroke-linejoin:round;stroke-miterlimit:10;stroke-dasharray:none;stroke-opacity:1" d="m445.987 318.705 108.186 62.502" transform="scale(.001)"/>
    </g>
</svg>
