<svg xmlns="http://www.w3.org/2000/svg" viewBox="0 0 1000 1000" height="1000" width="1000" xml:space="preserve">
    <defs>
        <clipPath id="a" clipPathUnits="userSpaceOnUse">
            <path d="M0 0h1v1H0Z"/>
        </clipPath>
        <clipPath id="b" clipPathUnits="userSpaceOnUse">
            <path d="M0 1000h1000.027V-.027H0Z"/>
        </clipPath>
        <clipPath id="c" clipPathUnits="userSpaceOnUse">
            <path d="M0 1000h1000.027V-.027H0Z"/>
        </clipPath>
    </defs>
    <g clip-path="url(#a)" transform="matrix(1000 0 0 -1000 0 1000)">
        <path style="fill:none;fill-opacity:1;fill-rule:evenodd;stroke:none" d="M0 1000V-.027h1000.027V1000Z" transform="scale(.001)"/>
        <path style="fill:none;stroke:red;stroke-width:14.96329975;stroke-linecap:round;stroke-linejoin:round;stroke-miterlimit:10;stroke-dasharray:none;stroke-opacity:1" d="m692.948 352.207 82.232 56.808m-87.662-234.116 32.575 38.004m-32.575-38.004.53 50.054m87.132 184.062-87.662-234.116m58 317.805-52.57-140.497" transform="scale(.001)"/>
        <path style="fill:none;stroke:#000;stroke-width:14.96329975;stroke-linecap:round;stroke-linejoin:round;stroke-miterlimit:10;stroke-dasharray:none;stroke-opacity:1" d="M625.017 749.993c0-69.122-55.881-125.003-125.004-125.003-68.99 0-125.003 55.88-125.003 125.003 0 68.99 56.013 125.004 125.003 125.004 69.123 0 125.004-56.014 125.004-125.004" transform="scale(.001)"/>
        <path style="fill:none;stroke:#000;stroke-width:14.96329975;stroke-linecap:round;stroke-linejoin:round;stroke-miterlimit:10;stroke-dasharray:none;stroke-opacity:1" d="M625.017 599.963c0-69.123-55.881-125.003-125.004-125.003-68.99 0-125.003 55.88-125.003 125.003 0 68.99 56.013 125.003 125.003 125.003 69.123 0 125.004-56.013 125.004-125.003M500.013 799.915l35.356 35.356m-35.356-35.356-35.355 35.356m35.355-35.356v-49.922" transform="scale(.001)"/>
        <g clip-path="url(#b)" transform="scale(.001)">
            <path style="fill:none;stroke:#000;stroke-width:14.96329975;stroke-linecap:round;stroke-linejoin:round;stroke-miterlimit:10;stroke-dasharray:none;stroke-opacity:1" d="M500.013 874.997V1000"/>
        </g>
        <g clip-path="url(#c)" transform="scale(.001)">
            <path style="fill:none;stroke:#000;stroke-width:14.96329975;stroke-linecap:round;stroke-linejoin:round;stroke-miterlimit:10;stroke-dasharray:none;stroke-opacity:1" d="M500.013 174.899V-.027"/>
        </g>
        <path style="fill:none;stroke:#000;stroke-width:14.96329975;stroke-linecap:round;stroke-linejoin:round;stroke-miterlimit:10;stroke-dasharray:none;stroke-opacity:1" d="M375.01 174.899h500.013m-362.43 0c0-6.886-5.561-12.448-12.58-12.448a12.433 12.433 0 0 0-12.447 12.448c0 6.885 5.562 12.58 12.447 12.58 7.019 0 12.58-5.695 12.58-12.58m-12.58 387.589 35.356 35.356m-35.356-35.356-35.355 35.356m35.355-35.356v-50.054m0 50.054 46.215-19.2m-46.215-68.328V174.899M254.377 749.993h80.378m-40.123 0L261.13 624.99" transform="scale(.001)"/>
        <path style="fill:none;stroke:#ff0;stroke-width:14.96329975;stroke-linecap:round;stroke-linejoin:round;stroke-miterlimit:10;stroke-dasharray:none;stroke-opacity:1" d="m445.987 293.678 108.186 62.502" transform="scale(.001)"/>
    </g>
</svg>
