<svg xmlns="http://www.w3.org/2000/svg" viewBox="0 0 1000 1000" height="1000" width="1000" xml:space="preserve">
    <defs>
        <clipPath id="a" clipPathUnits="userSpaceOnUse">
            <path d="M0 0h1v1H0Z"/>
        </clipPath>
        <clipPath id="b" clipPathUnits="userSpaceOnUse">
            <path d="M0 1000h1000.027V-.027H0Z"/>
        </clipPath>
        <clipPath id="c" clipPathUnits="userSpaceOnUse">
            <path d="M0 1000h1000.027V-.027H0Z"/>
        </clipPath>
    </defs>
    <g clip-path="url(#a)" transform="matrix(1000 0 0 -1000 0 1000)">
        <path style="fill:none;fill-opacity:1;fill-rule:evenodd;stroke:none" d="M0 1000V-.027h1000.027V1000Z" transform="scale(.001)"/>
        <path style="fill:none;stroke:red;stroke-width:14.96329975;stroke-linecap:round;stroke-linejoin:round;stroke-miterlimit:10;stroke-dasharray:none;stroke-opacity:1" d="m692.948 352.207 82.232 56.808m-87.662-234.116 32.575 38.004m-32.575-38.004.53 50.054m87.132 184.062-87.662-234.116m58 317.805-52.57-140.497" transform="scale(.001)"/>
        <g clip-path="url(#b)" transform="scale(.001)">
            <path style="fill:none;stroke:#000;stroke-width:14.96329975;stroke-linecap:round;stroke-linejoin:round;stroke-miterlimit:10;stroke-dasharray:none;stroke-opacity:1" d="M500.013 174.899V-.027"/>
        </g>
        <path style="fill:none;stroke:#000;stroke-width:14.96329975;stroke-linecap:round;stroke-linejoin:round;stroke-miterlimit:10;stroke-dasharray:none;stroke-opacity:1" d="M375.01 174.899h500.013m-362.43 0c0-6.886-5.561-12.448-12.58-12.448a12.433 12.433 0 0 0-12.447 12.448c0 6.885 5.562 12.58 12.447 12.58 7.019 0 12.58-5.695 12.58-12.58" transform="scale(.001)"/>
        <g clip-path="url(#c)" transform="scale(.001)">
            <path style="fill:none;stroke:#000;stroke-width:14.96329975;stroke-linecap:round;stroke-linejoin:round;stroke-miterlimit:10;stroke-dasharray:none;stroke-opacity:1" d="M500.013 864.933V1000"/>
        </g>
        <path style="fill:none;stroke:#000;stroke-width:14.96329975;stroke-linecap:round;stroke-linejoin:round;stroke-miterlimit:10;stroke-dasharray:none;stroke-opacity:1" d="M462.539 462.38h75.081m-75.081 0 37.474 65.017m37.607-65.017-37.607 65.017m37.607 337.536h-75.08m75.08 0-37.607-65.018m-37.474 65.018 37.474-65.018m0 0V527.397m0-352.498v287.48M279.404 749.993l6.753-125.003 36.812 62.502 3.31-62.502 73.758 125.003" transform="scale(.001)"/>
        <path style="fill:none;stroke:#0f0;stroke-width:14.96329975;stroke-linecap:round;stroke-linejoin:round;stroke-miterlimit:10;stroke-dasharray:none;stroke-opacity:1" d="m445.987 287.455 108.186 62.501" transform="scale(.001)"/>
        <path style="fill:none;stroke:#ff0;stroke-width:14.96329975;stroke-linecap:round;stroke-linejoin:round;stroke-miterlimit:10;stroke-dasharray:none;stroke-opacity:1" d="m445.987 337.376 108.186 62.502" transform="scale(.001)"/>
        <path style="fill:none;stroke:red;stroke-width:14.96329975;stroke-linecap:round;stroke-linejoin:round;stroke-miterlimit:10;stroke-dasharray:none;stroke-opacity:1" d="m445.987 237.4 108.186 62.502" transform="scale(.001)"/>
    </g>
</svg>
